<?xml version="1.0" encoding="utf-8"?>
<!-- Generator: Adobe Illustrator 25.0.0, SVG Export Plug-In . SVG Version: 6.00 Build 0)  -->
<svg version="1.1" id="Layer_1" xmlns="http://www.w3.org/2000/svg" xmlns:xlink="http://www.w3.org/1999/xlink" x="0px" y="0px"
	 viewBox="0 0 1024 1024" style="enable-background:new 0 0 1024 1024;" xml:space="preserve">
<style type="text/css">
	.st0{fill:none;stroke:#7650A1;stroke-width:20;stroke-miterlimit:10;}
</style>
<path class="st0" d="M807.78,807.78L807.78,807.78c42.88-42.88,42.88-112.39,0-155.27l-436.3-436.3
	c-42.88-42.88-112.39-42.88-155.27,0l0,0c-42.88,42.88-42.88,112.39,0,155.27l436.3,436.3
	C695.39,850.66,764.91,850.66,807.78,807.78z"/>
<path class="st0" d="M293.85,832.83L293.85,832.83c60.64,0,109.79-49.16,109.79-109.79V293.85c0-60.64-49.16-109.79-109.79-109.79h0
	c-60.64,0-109.79,49.16-109.79,109.79v429.19C184.06,783.68,233.21,832.83,293.85,832.83z"/>
<path class="st0" d="M293.85,321.5L293.85,321.5c15.27,0,27.65-12.38,27.65-27.65v0c0-15.27-12.38-27.65-27.65-27.65h0
	c-15.27,0-27.65,12.38-27.65,27.65v0C266.2,309.12,278.58,321.5,293.85,321.5z"/>
</svg>
