<?xml version="1.0" encoding="utf-8"?>
<!-- Generator: Adobe Illustrator 25.0.0, SVG Export Plug-In . SVG Version: 6.00 Build 0)  -->
<svg version="1.1" id="Layer_1" xmlns="http://www.w3.org/2000/svg" xmlns:xlink="http://www.w3.org/1999/xlink" x="0px" y="0px"
	 viewBox="0 0 1024 1024" style="enable-background:new 0 0 1024 1024;" xml:space="preserve">
<style type="text/css">
	.st0{fill:none;stroke:#666;stroke-width:20;stroke-miterlimit:10;}
	.st1{fill:none;}
</style>
<path class="st0" d="M266.74,727.09L266.74,727.09c-36.45-24.69-45.98-74.25-21.29-110.7l202-298.2
	c24.69-36.45,74.25-45.98,110.7-21.29l0,0c36.45,24.69,45.98,74.25,21.29,110.7l-202,298.2
	C352.75,742.25,303.19,751.78,266.74,727.09z"/>
<path class="st0" d="M759.99,727.09L759.99,727.09c36.45-24.69,45.98-74.25,21.29-110.7l-202-298.2
	c-24.69-36.45-74.25-45.98-110.7-21.29l0,0c-36.45,24.69-45.98,74.25-21.29,110.7l202,298.2
	C673.98,742.25,723.54,751.78,759.99,727.09z"/>
<path class="st0" d="M351.62,727.09L351.62,727.09c36.45-24.69,45.98-74.25,21.29-110.7l-202-298.2
	c-24.69-36.45-74.25-45.98-110.7-21.29l0,0c-36.45,24.69-45.98,74.25-21.29,110.7l202,298.2
	C265.61,742.25,315.18,751.78,351.62,727.09z"/>
<path class="st0" d="M672.38,727.09L672.38,727.09c-36.45-24.69-45.98-74.25-21.29-110.7l202-298.2
	c24.69-36.45,74.25-45.98,110.7-21.29l0,0c36.45,24.69,45.98,74.25,21.29,110.7l-202,298.2
	C758.39,742.25,708.82,751.78,672.38,727.09z"/>
<rect class="st1" width="1024" height="1024"/>
</svg>
